<svg viewBox="0 0 120 168" fill="none" xmlns="http://www.w3.org/2000/svg">
  <defs>
    <linearGradient id="tarot-bg-balanced" x1="0%" y1="0%" x2="100%" y2="100%">
      <stop offset="0%" stop-color="#f5e6d0" />
      <stop offset="55%" stop-color="#faf6ef" />
      <stop offset="100%" stop-color="#d4a05c" stop-opacity="0.35" />
    </linearGradient>
    <pattern id="tarot-ring-balanced" width="8" height="8" patternUnits="userSpaceOnUse">
      <path d="M0 4h8M4 0v8" stroke="#d4a05c" stroke-width="0.35" stroke-opacity="0.2" />
    </pattern>
  </defs>
  <rect width="120" height="168" rx="10" fill="url(#tarot-bg-balanced)" />
  <rect x="6" y="6" width="108" height="156" rx="8" fill="none" stroke="#d4a05c" stroke-width="1.2" stroke-opacity="0.55" />
  <rect x="10" y="10" width="100" height="148" rx="6" fill="url(#tarot-ring-balanced)" opacity="0.5" />
  <circle cx="60" cy="72" r="22" fill="none" stroke="#d4a05c" stroke-width="1" stroke-opacity="0.45" />
  <circle cx="60" cy="72" r="14" fill="none" stroke="#7a5a30" stroke-width="0.8" stroke-opacity="0.35" />
  <path d="M60 52 L68 72 L60 92 L52 72 Z" fill="#d4a05c" fill-opacity="0.25" stroke="#7a5a30" stroke-width="0.6" stroke-opacity="0.4" />
  <path d="M60 118 L48 138 L72 138 Z" fill="#d4a05c" fill-opacity="0.2" />
  <path d="M24 28 Q60 18 96 28" fill="none" stroke="#7a5a30" stroke-width="0.7" stroke-opacity="0.25" />
  <path d="M24 140 Q60 150 96 140" fill="none" stroke="#7a5a30" stroke-width="0.7" stroke-opacity="0.25" />
  <circle cx="30" cy="24" r="2" fill="#d4a05c" fill-opacity="0.5" />
  <circle cx="50" cy="144" r="2" fill="#d4a05c" fill-opacity="0.5" />
  <circle cx="70" cy="24" r="2" fill="#d4a05c" fill-opacity="0.5" />
  <circle cx="90" cy="144" r="2" fill="#d4a05c" fill-opacity="0.5" />
</svg>
